<?xml version="1.0" encoding="UTF-8"?>
<!-- Generator: Adobe Illustrator 21.1.0, SVG Export Plug-In . SVG Version: 6.00 Build 0)  -->
<svg version="1.1" xmlns="http://www.w3.org/2000/svg" xmlns:xlink="http://www.w3.org/1999/xlink" x="0px" y="0px" viewBox="0 0 226 56" style="enable-background:new 0 0 226 56;" xml:space="preserve">
<style type="text/css">
	.st0{fill:#231F20;}
</style>
<g id="Layer_1">
	<path class="st0" d="M28,55.5c15.2,0,27.5-12.3,27.5-27.5S43.2,0.5,28,0.5C12.8,0.5,0.5,12.8,0.5,28S12.8,55.5,28,55.5z M28,3.6   c13.5,0,24.4,11,24.4,24.4c0,13.5-11,24.4-24.4,24.4c-13.5,0-24.4-11-24.4-24.4C3.6,14.5,14.5,3.6,28,3.6z"/>
	<path class="st0" d="M31.9,13.1l-1.1,1.5c0,0.1,0,0.2,0,0.2c0,0,0.1,0,0.2,0l1.8-0.6l1.1,1.5c0,0,0,0,0.1,0.1c0,0,0.1,0,0.1,0   c0.1,0,0.1-0.1,0.1-0.1l0-1.9l1.8-0.6c0.1,0,0.1-0.1,0.1-0.2c0-0.1,0-0.1-0.1-0.1l-1.8-0.5c0-0.3,0-1.1,0-1.6l0-0.3   c0-0.1,0-0.1-0.1-0.1c-0.1,0-0.1,0-0.2,0l0,0c0,0,0,0,0,0.1c-0.3,0.5-0.7,1-1,1.4l0,0l-1.8-0.6c-0.1,0-0.2,0-0.2,0.1   c0,0.1,0,0.1,0,0.2L31.9,13.1z"/>
	<path class="st0" d="M15.3,18l1.9-0.2l0.8,1.7c0,0.1,0.1,0.1,0.2,0.1c0.1,0,0.1-0.1,0.1-0.1l0.4-1.8l1.9-0.2c0,0,0.1,0,0.1,0   c0,0,0-0.1,0.1-0.1c0-0.1,0-0.1-0.1-0.2l-1.6-0.9l0.4-1.8c0-0.1,0-0.1-0.1-0.2c-0.1,0-0.1,0-0.2,0l-1.4,1.3c-0.3-0.1-1-0.5-1.4-0.8   L16,14.5c-0.1,0-0.1,0-0.2,0c0,0.1-0.1,0.1,0,0.2l0,0c0,0,0,0,0,0.1c0.2,0.5,0.5,1.1,0.7,1.6l0,0l-1.4,1.3c-0.1,0.1-0.1,0.2,0,0.2   C15.2,18,15.2,18,15.3,18z"/>
	<path class="st0" d="M22.1,12.9l1.7,0.7l-0.1,1.9c0,0.1,0.1,0.1,0.1,0.2c0.1,0,0.1,0,0.2-0.1l1.2-1.4l1.7,0.7c0,0,0.1,0,0.1,0   c0,0,0.1,0,0.1-0.1c0-0.1,0-0.1,0-0.2l-1-1.6l1.2-1.4c0-0.1,0-0.1,0-0.2c0-0.1-0.1-0.1-0.2-0.1l-1.8,0.5c-0.2-0.3-0.6-0.9-0.8-1.3   l-0.2-0.3c0-0.1-0.1-0.1-0.2-0.1c-0.1,0-0.1,0.1-0.1,0.1l0,0c0,0,0,0,0,0.1c0,0.6-0.1,1.2-0.1,1.8l0,0l-1.8,0.5   c-0.1,0-0.1,0.1-0.1,0.2C22,12.8,22,12.8,22.1,12.9z"/>
	<path class="st0" d="M12,27.2l0.3,0c-0.6,1.1-0.9,2.4-0.8,3.9c0,1.1,0.3,2.2,0.8,3.3c1.7,3.8,2.6,6.7,2.6,7.7l0,0.1   c0,0.2,0.1,0.4,0.1,0.4c0.1,0.1,0.2,0.1,0.3,0.1c0,0,0.1,0,0.1,0c0.1,0,0.1,0,0.2,0c1.7,0.1,5.8,1.8,7.5,2.6   c1.1,0.5,2.2,0.7,3.3,0.8l0.1,0c1.7,0.1,3-0.4,3.9-0.8l0,0.3c0,0.2,0.1,0.4,0.2,0.5c0.1,0.1,0.3,0.2,0.5,0.2c0.1,0,0.1,0,0.2,0   c2.3-0.6,4.5-2.9,5.3-4.2c0.2-0.3,0.2-0.6,0-0.9c-0.2-0.4-0.6-0.6-1-0.4c-0.9,0.3-2,0.4-3.3,0.4c-1,0-1.9-0.2-2.6-0.3   c-0.4-0.1-0.7-0.1-1-0.1c-0.1,0-0.5,0-0.6,0.3c0,0.1-0.1,0.3,0.2,0.6c0.2,0.2,0.6,0.6,1,0.9c0.8,0.2,1.9,0,1.9,0   c-0.4,0.1-1.4,0.4-1.4,0.4c-0.6,0.2-1.5,0.3-2.4,0.3c-0.4,0-0.7-0.1-1-0.2c-2.5-0.7-4-1.6-4.5-2.8C21.3,39,22,38.1,22,38   c0,0,0,0,0-0.1l0-0.1l9.8-10L43.5,26c0.1,0,0.1-0.1,0.2-0.1l0.9-0.9c0.1-0.1,0.1-0.3,0.1-0.4c-0.1-0.1-0.2-0.2-0.4-0.2h0l-8.9,0   l2.2-2.2c0.3,0.1,0.7,0.2,1.1,0.2c0.9,0,1.8-0.4,2.4-1c0.7-0.7,1-1.5,1-2.5c0-0.9-0.4-1.8-1-2.5c-0.7-0.7-1.5-1-2.5-1   s-1.8,0.4-2.5,1c-0.9,0.9-1.2,2.3-0.8,3.5l-4,4c0.7,0.3,2,0.5,2,0.5l-10.5,0c0,0,0,0,0.1,0l-0.2,0h0c-0.1,0-0.2,0-0.3,0.1l-0.9,0.9   c-0.1,0.1-0.1,0.2-0.1,0.4c0,0.1,0.1,0.2,0.3,0.3l5.7,1.8l-8,7.7l0,0c0,0,0,0,0,0l-2.4,2.3c0,0,0.7-0.7,0.9-1.9   c-1.5-0.1-2.7-1.7-3.5-4.7c-0.3-1.2-0.1-2.6,0.1-3.5c0.1,0.1,0.2,0.2,0.3,0.3c0.4,0.4,0.7,0.9,1,1.2c0.1,0.1,0.2,0.2,0.4,0.2   c0.1,0,0.3-0.1,0.3-0.1c0.2-0.2,0.1-0.5,0-1.5c-0.2-1.4-0.6-3.9,0.1-5.9c0.1-0.2,0-0.5-0.1-0.7c-0.3-0.4-0.9-0.5-1.2-0.3   c-1.3,0.8-3.6,3-4.2,5.3c-0.1,0.2,0,0.4,0.1,0.6C11.5,27.1,11.8,27.2,12,27.2z M37.8,18.1c0.2-0.2,0.5-0.3,0.8-0.3   c0.3,0,0.6,0.1,0.8,0.3c0.2,0.2,0.3,0.5,0.3,0.8c0,0.3-0.1,0.6-0.3,0.8c-0.4,0.4-1.2,0.4-1.6,0C37.4,19.2,37.4,18.5,37.8,18.1z"/>
	<path class="st0" d="M34.5,35.3h0.6c0,0,0,0,0,0v-3c0,0,0,0,0,0h-0.4l0,0l-0.8,0.3c0,0,0,0,0,0l0.1,0.5c0,0,0,0,0,0l0.5-0.1   L34.5,35.3C34.5,35.3,34.5,35.3,34.5,35.3z"/>
	<path class="st0" d="M37.6,32.3c-0.7,0-1.1,0.4-1.1,1.1c0,0.6,0.4,1,1.1,1c0.2,0,0.4-0.1,0.6-0.2c0,0.2-0.2,0.6-0.6,0.6   c-0.2,0-0.4-0.1-0.6-0.2c0,0,0,0,0,0c0,0,0,0,0,0L36.5,35c0,0,0,0,0,0c0.3,0.2,0.6,0.4,1,0.4c0.8,0,1.3-0.6,1.3-1.6   c0-0.5-0.1-0.9-0.4-1.1C38.2,32.4,38,32.3,37.6,32.3z M37.6,33.7c-0.3,0-0.5-0.2-0.5-0.4c0-0.3,0.2-0.4,0.5-0.4   c0.3,0,0.5,0.2,0.5,0.4C38.1,33.6,37.9,33.7,37.6,33.7z"/>
	<path class="st0" d="M40.8,34.7l0.4-0.3c0.5-0.4,0.8-0.7,0.8-1.2c0-0.6-0.4-0.9-1-0.9c-0.6,0-0.8,0.2-1.1,0.6c0,0,0,0,0,0l0.5,0.4   c0,0,0,0,0,0c0.2-0.3,0.4-0.4,0.6-0.4c0.2,0,0.4,0.1,0.4,0.4c0,0.2-0.1,0.4-0.5,0.7l-1,0.8c0,0,0,0,0,0v0.5c0,0,0,0,0,0H42   c0,0,0,0,0,0v-0.6c0,0,0,0,0,0H40.8z"/>
	<path class="st0" d="M43.2,32.4v0.6c0,0,0,0,0,0h1.1l-0.7,0.7c0,0,0,0,0,0l0.1,0.4c0,0,0,0,0,0h0.3c0.4,0,0.6,0.1,0.6,0.4   c0,0.2-0.2,0.3-0.4,0.3c-0.3,0-0.5-0.1-0.7-0.3c0,0,0,0,0,0c0,0,0,0,0,0l-0.4,0.4c0,0,0,0,0,0c0.3,0.3,0.7,0.5,1.2,0.5   c0.6,0,1.1-0.4,1.1-1c0-0.5-0.3-0.7-0.8-0.8l0.7-0.7c0,0,0,0,0,0v-0.5c0,0,0,0,0,0L43.2,32.4C43.2,32.3,43.2,32.3,43.2,32.4z"/>
</g>
<g id="Layer_2">
	<path class="st0" d="M66.3,23.3H83c0.1,0,0.2-0.1,0.2-0.2v-2.7c0-0.1-0.1-0.2-0.2-0.2H69.5V5.2c0-0.1-0.1-0.2-0.2-0.2h-3   c-0.1,0-0.2,0.1-0.2,0.2v17.8C66.1,23.2,66.2,23.3,66.3,23.3z"/>
	<path class="st0" d="M92.9,23.3c0.1,0,0.2-0.1,0.2-0.2V5.2c0-0.1-0.1-0.2-0.2-0.2h-3c-0.1,0-0.2,0.1-0.2,0.2v17.8   c0,0.1,0.1,0.2,0.2,0.2H92.9z"/>
	<path class="st0" d="M100.1,23.3h14.2c4.6,0,7-1.7,7-4.9c0-2.2-0.9-3.8-2.8-4.6c1.3-0.9,2-2.2,2-3.7c0-1.5-0.6-2.8-1.6-3.7   c-1.1-0.9-2.6-1.4-4.4-1.4h-14.4c-0.1,0-0.2,0.1-0.2,0.2v17.8C99.9,23.2,100,23.3,100.1,23.3z M103.3,8.1h11.4   c0.8,0,1.4,0.2,1.9,0.6c0.4,0.4,0.7,0.9,0.7,1.6c0,0.6-0.2,1.1-0.7,1.5c-0.5,0.4-1.1,0.6-1.9,0.6h-11.3V8.1z M103.3,15.6h11.5   c2,0,3,0.8,3,2.4c0,1.5-1.1,2.2-3.5,2.2h-11V15.6z"/>
	<path class="st0" d="M146.4,20.2h-15.5v-4.8h10.2c0.1,0,0.2-0.1,0.2-0.2v-2.7c0-0.1-0.1-0.2-0.2-0.2h-10.2V8.1h14.8   c0.1,0,0.2-0.1,0.2-0.2V5.2c0-0.1-0.1-0.2-0.2-0.2h-18c-0.1,0-0.2,0.1-0.2,0.2v17.8c0,0.1,0.1,0.2,0.2,0.2h18.7   c0.1,0,0.2-0.1,0.2-0.2v-2.7C146.6,20.3,146.5,20.2,146.4,20.2z"/>
	<path class="st0" d="M170.1,23.2c0,0.1,0.1,0.1,0.2,0.1h3.4c0.1,0,0.2,0,0.2-0.1c0-0.1,0-0.2,0-0.2l-4.6-6.6   c1.3-0.3,2.3-0.8,3.1-1.6c0.9-1,1.4-2.2,1.4-3.8c0-1.8-0.6-3.2-1.7-4.3c-1.1-1-2.7-1.6-4.6-1.6h-14.1c-0.1,0-0.2,0.1-0.2,0.2v17.8   c0,0.1,0.1,0.2,0.2,0.2h3c0.1,0,0.2-0.1,0.2-0.2v-6.6h8.6L170.1,23.2z M156.7,8.1h10.2c2.3,0,3.5,0.9,3.5,2.7c0,1.7-1,2.5-3.2,2.5   h-10.4V8.1z"/>
	<path class="st0" d="M178.6,8.1h8.3v14.9c0,0.1,0.1,0.2,0.2,0.2h3c0.1,0,0.2-0.1,0.2-0.2V8.1h8.3c0.1,0,0.2-0.1,0.2-0.2V5.2   c0-0.1-0.1-0.2-0.2-0.2h-20c-0.1,0-0.2,0.1-0.2,0.2v2.7C178.4,8,178.5,8.1,178.6,8.1z"/>
	<path class="st0" d="M225,5.1c0-0.1-0.1-0.1-0.2-0.1h-3.7c-0.1,0-0.1,0-0.2,0.1l-7.4,8.1l-7.4-8.1C206.1,5,206,5,206,5h-3.7   c-0.1,0-0.2,0.1-0.2,0.1c0,0.1,0,0.2,0,0.3l9.7,10.7v7c0,0.1,0.1,0.2,0.2,0.2h3c0.1,0,0.2-0.1,0.2-0.2v-7l9.7-10.7   C225,5.3,225,5.2,225,5.1z"/>
	<path class="st0" d="M85.8,44.7c0-1.6-0.6-2.8-1.7-3.6c-1.1-0.8-2.8-1.4-5.1-1.7c-0.8-0.1-2.4-0.2-4.9-0.4   c-1.6-0.1-2.8-0.3-3.6-0.5c-0.9-0.3-1.4-0.8-1.4-1.5c0-0.7,0.4-1.2,1.3-1.6c0.9-0.4,2.3-0.6,4.1-0.6c2.7,0,5.4,0.7,8,2   c0.1,0,0.2,0,0.3-0.1l1.8-2c0-0.1,0.1-0.1,0.1-0.2c0-0.1,0-0.1-0.1-0.2c-2.6-1.8-5.9-2.7-9.8-2.7c-2.9,0-5.2,0.5-6.8,1.5   c-1.6,1-2.5,2.4-2.5,4.2c0,1.7,0.7,3,2.2,3.7c1.2,0.6,3.3,1,6.3,1.2c3.3,0.2,5.3,0.4,6.1,0.6c1.3,0.4,2,1,2,2   c0,0.9-0.5,1.6-1.5,2.1c-1.1,0.6-2.7,0.8-4.7,0.8c-3.2,0-6.2-0.9-8.9-2.5c-0.1-0.1-0.2,0-0.3,0.1L65,47.5c-0.1,0.1-0.1,0.3,0,0.3   c2.6,2,6.2,3.1,10.8,3.1c3.2,0,5.6-0.5,7.3-1.6C85,48.2,85.8,46.7,85.8,44.7z"/>
	<path class="st0" d="M110.1,32.2h-20c-0.1,0-0.2,0.1-0.2,0.2v2.7c0,0.1,0.1,0.2,0.2,0.2h8.3v14.9c0,0.1,0.1,0.2,0.2,0.2h3   c0.1,0,0.2-0.1,0.2-0.2V35.3h8.3c0.1,0,0.2-0.1,0.2-0.2v-2.7C110.3,32.3,110.2,32.2,110.1,32.2z"/>
	<path class="st0" d="M130.8,50.5h3.2c0.1,0,0.2,0,0.2-0.1c0-0.1,0-0.2,0-0.2l-9.4-17.8c0-0.1-0.1-0.1-0.2-0.1h-3.7   c-0.1,0-0.2,0-0.2,0.1l-9.4,17.8c0,0.1,0,0.2,0,0.2c0,0.1,0.1,0.1,0.2,0.1h3.2c0.1,0,0.2-0.1,0.2-0.1l2-3.9h11.7l2,3.9   C130.6,50.4,130.7,50.5,130.8,50.5z M118.5,43.4l4.2-7.9l4.1,7.9H118.5z"/>
	<path class="st0" d="M155.4,35.1v-2.7c0-0.1-0.1-0.2-0.2-0.2h-20c-0.1,0-0.2,0.1-0.2,0.2v2.7c0,0.1,0.1,0.2,0.2,0.2h8.3v14.9   c0,0.1,0.1,0.2,0.2,0.2h3c0.1,0,0.2-0.1,0.2-0.2V35.3h8.3C155.3,35.3,155.4,35.2,155.4,35.1z"/>
	<path class="st0" d="M165.5,32.2h-3c-0.1,0-0.2,0.1-0.2,0.2v17.8c0,0.1,0.1,0.2,0.2,0.2h3c0.1,0,0.2-0.1,0.2-0.2V32.4   C165.8,32.3,165.7,32.2,165.5,32.2z"/>
	<path class="st0" d="M192.4,34.1c-2.1-1.6-4.8-2.5-8-2.5c-3.1,0-5.8,0.8-8,2.5c-2.5,1.9-3.7,4.3-3.7,7.2c0,3,1.2,5.4,3.7,7.3   c2.1,1.6,4.8,2.4,8,2.4c3.2,0,5.8-0.8,8-2.4c2.5-1.8,3.7-4.3,3.7-7.3C196.1,38.4,194.9,35.9,192.4,34.1z M190.4,46   c-1.5,1.2-3.5,1.8-5.9,1.8c-2.5,0-4.5-0.6-6-1.8c-1.5-1.2-2.2-2.8-2.2-4.7c0-1.9,0.8-3.4,2.3-4.7c1.5-1.2,3.5-1.9,5.9-1.9   c2.2,0,4.1,0.5,5.6,1.6c1.7,1.2,2.6,2.9,2.6,4.9C192.6,43.2,191.8,44.8,190.4,46z"/>
	<path class="st0" d="M206.4,50.3v-14l13.2,14.2c0,0,0.1,0.1,0.2,0.1h3.7c0.1,0,0.2-0.1,0.2-0.2V32.4c0-0.1-0.1-0.2-0.2-0.2h-3   c-0.1,0-0.2,0.1-0.2,0.2v14L207,32.2c0,0-0.1-0.1-0.2-0.1h-3.7c-0.1,0-0.2,0.1-0.2,0.2v17.8c0,0.1,0.1,0.2,0.2,0.2h3   C206.3,50.5,206.4,50.4,206.4,50.3z"/>
</g>
</svg>