<?xml version="1.0" encoding="UTF-8" standalone="no"?>
<svg
   width="1em"
   height="1em"
   viewBox="0 0 24 24"
   version="1.1"
   id="svg1"
   sodipodi:docname="sd48.svg"
   inkscape:version="1.4 (e7c3feb1, 2024-10-09)"
   xmlns:inkscape="http://www.inkscape.org/namespaces/inkscape"
   xmlns:sodipodi="http://sodipodi.sourceforge.net/DTD/sodipodi-0.dtd"
   xmlns="http://www.w3.org/2000/svg"
   xmlns:svg="http://www.w3.org/2000/svg">
  <defs
     id="defs1" />
  <sodipodi:namedview
     id="namedview1"
     pagecolor="#ffffff"
     bordercolor="#000000"
     borderopacity="0.25"
     inkscape:showpageshadow="2"
     inkscape:pageopacity="0.0"
     inkscape:pagecheckerboard="0"
     inkscape:deskcolor="#d1d1d1"
     showgrid="false"
     inkscape:zoom="16.104167"
     inkscape:cx="9.8111255"
     inkscape:cy="4.7503234"
     inkscape:window-width="1792"
     inkscape:window-height="992"
     inkscape:window-x="0"
     inkscape:window-y="25"
     inkscape:window-maximized="1"
     inkscape:current-layer="svg1" />
  <path
     style="fill:currentColor"
     d="m 10.836864,0.20064 h 3.812159 q 1.76396,0 2.93436,0.7106 1.17876,0.70224 1.77232,1.94788 0.59356,1.24564 0.59356,2.85076 0,1.61348 -0.59356,2.85912 -0.59356,1.24564 -1.77232,1.95624 -1.1704,0.7106 -2.93436,0.7106 h -3.812159 z m 3.235319,2.85076 v 5.33368 h 0.28424 q 0.69388,0 1.1704,-0.35112 0.47652,-0.35112 0.72732,-0.95304 0.2508,-0.61028 0.2508,-1.35432 0,-0.7524 -0.2508,-1.35432 -0.24244,-0.61028 -0.72732,-0.9614 -0.47652,-0.35948 -1.1704,-0.35948 z"
     id="path4" />
  <path
     style="fill:currentColor"
     d="m 4.8571599,0 q 1.07008,0 1.89772,0.23408 0.8359996,0.22572 1.3459597,0.48488 0.5183199,0.25916 0.63536,0.35112 L 7.20632,3.66168 Q 7.0725599,3.56136 6.7381599,3.3858 6.41212,3.20188 6.0024799,3.05976 5.5928399,2.91764 5.21664,2.91764 q -0.4430801,0 -0.73568,0.1254 -0.2926,0.11704 -0.2926,0.40964 0,0.20064 0.1588399,0.36784 0.15884,0.1672 0.53504,0.34276 0.38456,0.17556 1.045,0.40128 0.64372,0.209 1.17876,0.51832 0.5350397,0.30932 0.9195997,0.73568 0.3929199,0.42636 0.6102799,0.97812 0.21736,0.55176 0.21736,1.24564 0,0.9196 -0.38456,1.57168 -0.3761999,0.64372 -1.0115596,1.045 -0.63536,0.40128 -1.4212,0.5852 -0.77748,0.19228 -1.58004,0.19228 -1.2289199,0 -2.1903199,-0.26752 Q 1.31252,10.90144 0.71896002,10.59212 0.13376,10.27444 0,10.14068 L 1.58004,7.4404 Q 1.672,7.51564 1.9729599,7.68284 2.28228,7.85004 2.70864,8.03396 q 0.43472,0.18392 0.89452,0.31768 0.4597999,0.1254 0.8527199,0.1254 0.5266801,0 0.77748,-0.15048 Q 5.48416,8.17608 5.48416,7.89184 5.48416,7.6912 5.3253199,7.51564 5.1748399,7.34008 4.7735599,7.1478 4.38064,6.94716 3.65332,6.688 2.95108,6.42884 2.31572,6.01084 1.68036,5.59284 1.27908,4.92404 0.87780002,4.25524 0.87780002,3.25204 0.87780002,2.23212 1.44628,1.5048 2.01476,0.77748 2.926,0.39292 3.83724,0 4.8571599,0 Z"
     id="path2" />
  <path
     style="fill:currentColor"
     d="m 19.70296,24 q -1.11188,0 -2.09836,-0.40964 -0.98648,-0.418 -1.60512,-1.16204 -0.61864,-0.74404 -0.61864,-1.73052 0,-0.73568 0.23408,-1.27072 0.24244,-0.53504 0.6688,-0.9196 0.42636,-0.38456 0.96976,-0.66044 -0.418,-0.26752 -0.73568,-0.57684 -0.31768,-0.30932 -0.49324,-0.72732 -0.17556,-0.42636 -0.17556,-1.03664 0,-0.9196 0.52668,-1.57168 0.52668,-0.66044 1.39612,-1.01156 0.8778,-0.35948 1.91444,-0.35948 1.07008,0 1.9228,0.35948 0.86108,0.35112 1.36268,1.01156 0.5016,0.65208 0.5016,1.57168 0,0.91124 -0.36784,1.42956 -0.36784,0.50996 -0.97812,0.91124 0.5434,0.27588 0.9614,0.66044 0.42636,0.38456 0.6688,0.9196 Q 24,19.96212 24,20.6978 q 0,0.98648 -0.61028,1.73052 -0.61028,0.74404 -1.59676,1.16204 Q 20.81484,24 19.70296,24 Z m -0.01672,-2.79224 q 0.26752,0 0.47652,-0.1254 0.21736,-0.13376 0.34276,-0.35112 0.13376,-0.21736 0.13376,-0.47652 0,-0.25916 -0.13376,-0.47652 -0.1254,-0.21736 -0.34276,-0.34276 -0.209,-0.13376 -0.47652,-0.13376 -0.25916,0 -0.47652,0.13376 -0.209,0.1254 -0.34276,0.34276 -0.1254,0.21736 -0.1254,0.47652 0,0.25916 0.1254,0.47652 0.13376,0.21736 0.34276,0.35112 0.21736,0.1254 0.47652,0.1254 z m 0.01672,-4.3472 q 0.2508,0 0.45144,-0.1254 0.209,-0.1254 0.3344,-0.3344 0.1254,-0.21736 0.1254,-0.46816 0,-0.2508 -0.1254,-0.45144 -0.1254,-0.209 -0.3344,-0.3344 -0.20064,-0.1254 -0.45144,-0.1254 -0.2508,0 -0.4598,0.1254 -0.209,0.1254 -0.3344,0.3344 -0.1254,0.20064 -0.1254,0.45144 0,0.2508 0.1254,0.46816 0.1254,0.209 0.3344,0.3344 0.209,0.1254 0.4598,0.1254 z"
     id="path5" />
  <path
     style="fill:currentColor"
     d="m 12.736759,12.76416 v 5.91052 h 1.28744 v 2.8006 h -1.28744 v 2.32408 H 9.5098014 V 21.47528 H 5.0288422 V 18.9422 L 8.9496819,12.76416 Z M 9.5098014,18.67468 V 16.685 h -0.02508 l -1.2539995,1.98968 z"
     id="path3" />
</svg>
